<svg xmlns="http://www.w3.org/2000/svg" width="41" height="40" viewBox="0 0 41 40" fill="#fff">
<rect x="1" y="0.5" width="39" height="39" rx="19.5" stroke="#23ebf3" fill="#ffffff"/>
<path d="M15.2926 27V25.0966L20.3423 20.1463C20.8253 19.6586 21.2277 19.2254 21.5497 18.8466C21.8717 18.4678 22.1132 18.1009 22.2741 17.7457C22.4351 17.3906 22.5156 17.0118 22.5156 16.6094C22.5156 16.1501 22.4115 15.7571 22.2031 15.4304C21.9948 15.099 21.7083 14.8433 21.3438 14.6634C20.9792 14.4834 20.5649 14.3935 20.1009 14.3935C19.6226 14.3935 19.2036 14.4929 18.8438 14.6918C18.4839 14.8859 18.2045 15.1629 18.0057 15.5227C17.8116 15.8826 17.7145 16.3111 17.7145 16.8082H15.2074C15.2074 15.8849 15.4181 15.0824 15.8395 14.4006C16.2609 13.7187 16.8409 13.1908 17.5795 12.8168C18.3229 12.4427 19.1752 12.2557 20.1364 12.2557C21.1117 12.2557 21.9688 12.438 22.7074 12.8026C23.446 13.1671 24.0189 13.6667 24.4261 14.3011C24.8381 14.9356 25.044 15.66 25.044 16.4744C25.044 17.0189 24.9399 17.554 24.7315 18.0795C24.5232 18.6051 24.1563 19.1875 23.6307 19.8267C23.1098 20.4659 22.3783 21.2401 21.4361 22.1491L18.929 24.6989V24.7983H25.2642V27H15.2926Z" fill="#23ebf3"/>
</svg>