<svg xmlns="http://www.w3.org/2000/svg" width="41" height="40" viewBox="0 0 41 40" fill="#fff">
<rect x="1" y="0.5" width="39" height="39" rx="19.5" stroke="#23ebf3" fill="#ffffff"/>
<path d="M20.0128 27.1989C18.9901 27.1989 18.081 27.0237 17.2855 26.6733C16.4948 26.3229 15.8698 25.8352 15.4105 25.2102C14.9512 24.5852 14.7074 23.8632 14.679 23.044H17.3494C17.3731 23.437 17.5033 23.7803 17.7401 24.0739C17.9768 24.3627 18.2917 24.5876 18.6847 24.7486C19.0777 24.9096 19.518 24.9901 20.0057 24.9901C20.5265 24.9901 20.9882 24.9001 21.3906 24.7202C21.7931 24.5355 22.108 24.2798 22.3352 23.9531C22.5625 23.6264 22.6738 23.25 22.669 22.8239C22.6738 22.3835 22.5601 21.9953 22.3281 21.6591C22.0961 21.3229 21.7599 21.0601 21.3196 20.8707C20.884 20.6813 20.3584 20.5866 19.7429 20.5866H18.4574V18.5554H19.7429C20.2495 18.5554 20.6922 18.4678 21.071 18.2926C21.4545 18.1174 21.7552 17.8712 21.973 17.554C22.1908 17.232 22.2973 16.8603 22.2926 16.4389C22.2973 16.027 22.205 15.6695 22.0156 15.3665C21.831 15.0587 21.5682 14.8196 21.2273 14.6491C20.8911 14.4787 20.4957 14.3935 20.0412 14.3935C19.5961 14.3935 19.1842 14.474 18.8054 14.6349C18.4266 14.7959 18.1212 15.0256 17.8892 15.3239C17.6572 15.6174 17.5341 15.9678 17.5199 16.375H14.9844C15.0033 15.5606 15.2377 14.8456 15.6875 14.2301C16.142 13.6098 16.7481 13.1269 17.5057 12.7812C18.2633 12.4309 19.1132 12.2557 20.0554 12.2557C21.026 12.2557 21.8688 12.438 22.5838 12.8026C23.3035 13.1624 23.8598 13.6477 24.2528 14.2585C24.6458 14.8693 24.8423 15.544 24.8423 16.2827C24.8471 17.1018 24.6056 17.7884 24.1179 18.3423C23.6349 18.8963 23.0005 19.2585 22.2145 19.429V19.5426C23.2372 19.6847 24.0208 20.0634 24.5653 20.679C25.1146 21.2898 25.3868 22.0497 25.3821 22.9588C25.3821 23.7732 25.1501 24.5024 24.6861 25.1463C24.2268 25.7855 23.5923 26.2874 22.7827 26.652C21.9777 27.0166 21.0545 27.1989 20.0128 27.1989Z" fill="#23ebf3"/>
</svg>