<svg xmlns="http://www.w3.org/2000/svg" width="16px" height="17px" fill="none" transform="rotate(0) scale(1, 1)"><path fill="#23ebf3" d="M14.116 7.254c-.235-.246-.48-.5-.571-.723-.085-.204-.09-.543-.095-.871-.01-.61-.02-1.301-.5-1.782-.48-.48-1.172-.49-1.782-.5-.328-.005-.667-.01-.871-.095-.223-.092-.477-.336-.723-.571-.431-.415-.921-.884-1.574-.884-.652 0-1.142.47-1.574.884-.246.235-.5.479-.723.57-.203.086-.543.09-.871.096-.61.01-1.301.02-1.782.5-.48.48-.487 1.172-.5 1.782-.005.328-.01.667-.095.871-.092.223-.336.477-.571.723C1.469 7.685 1 8.175 1 8.828c0 .652.47 1.142.884 1.574.235.246.48.5.571.723.085.204.09.543.095.871.01.61.02 1.301.5 1.782.48.48 1.172.49 1.782.5.328.005.667.01.871.095.223.092.477.336.723.571.431.414.921.884 1.574.884.652 0 1.142-.47 1.574-.884.246-.236.5-.48.723-.571.204-.085.543-.09.871-.095.61-.01 1.301-.02 1.782-.5.48-.48.49-1.172.5-1.782.005-.328.01-.667.095-.871.092-.223.336-.477.571-.723.415-.432.884-.922.884-1.574 0-.653-.47-1.142-.884-1.574Zm-3.262.428-3.5 3.5a.5.5 0 0 1-.708 0l-1.5-1.5a.5.5 0 1 1 .708-.708L7 10.121l3.146-3.147a.501.501 0 0 1 .708.708Z"/></svg>