<?xml version="1.0" encoding="utf-8"?>
<!-- Generator: Adobe Illustrator 25.4.1, SVG Export Plug-In . SVG Version: 6.00 Build 0)  -->
<svg version="1.1" id="Layer_1" xmlns="http://www.w3.org/2000/svg" xmlns:xlink="http://www.w3.org/1999/xlink" x="0px" y="0px"
	 viewBox="0 0 48 47" style="enable-background:new 0 0 48 47;" xml:space="preserve">
<style type="text/css">
	.st0{fill:#FFFFFF;stroke:#23EBF3;stroke-width:2;}
	.st1{fill:#23EBF3;}
</style>
<circle class="st0" cx="24.3" cy="23.5" r="22.5"/>
<path class="st1" d="M20.3,21c0.8,0,1.6-0.3,2.1-0.9c0.6-0.6,0.9-1.3,0.9-2.1s-0.3-1.6-0.9-2.1c-0.6-0.6-1.3-0.9-2.1-0.9
	c-0.8,0-1.6,0.3-2.1,0.9c-0.6,0.6-0.9,1.3-0.9,2.1s0.3,1.6,0.9,2.1C18.7,20.7,19.5,21,20.3,21z M14.8,23.8c0-1,0.8-1.8,1.8-1.8h4.8
	c-0.4,0.6-0.5,1.3-0.5,2c0,0.6,0.1,1.1,0.4,1.6c0.2,0.5,0.6,1,1,1.4h-1.1c-0.6,0-1.1,0.2-1.6,0.5c-0.5,0.3-0.8,0.8-1,1.3
	c-1.5-0.4-2.4-1.2-3-2.1c-0.7-1.2-0.7-2.4-0.7-2.6V23.8z M28.8,24c0-0.7-0.2-1.4-0.5-2H33c1,0,1.8,0.8,1.8,1.8v0.4
	c0,0.2,0,1.4-0.7,2.6c-0.5,0.9-1.5,1.7-3,2.1c-0.2-0.5-0.6-1-1-1.3c-0.5-0.3-1-0.5-1.6-0.5h-1.1c0.4-0.4,0.8-0.8,1-1.4
	C28.7,25.1,28.8,24.6,28.8,24z M32.3,18c0,0.8-0.3,1.6-0.9,2.1c-0.6,0.6-1.3,0.9-2.1,0.9c-0.8,0-1.6-0.3-2.1-0.9
	c-0.6-0.6-0.9-1.3-0.9-2.1s0.3-1.6,0.9-2.1c0.6-0.6,1.3-0.9,2.1-0.9c0.8,0,1.6,0.3,2.1,0.9C32,16.4,32.3,17.2,32.3,18z M19.3,29.8
	c0-1,0.8-1.8,1.8-1.8h7.5c1,0,1.8,0.8,1.8,1.8v0.4c0,0.2,0,1.4-0.7,2.6c-0.7,1.2-2.2,2.3-4.8,2.3s-4.1-1.1-4.8-2.3
	c-0.7-1.2-0.7-2.4-0.7-2.6V29.8z M24.8,27c0.4,0,0.8-0.1,1.1-0.2c0.4-0.2,0.7-0.4,1-0.7c0.3-0.3,0.5-0.6,0.7-1
	c0.2-0.4,0.2-0.8,0.2-1.1s-0.1-0.8-0.2-1.1c-0.2-0.4-0.4-0.7-0.7-1c-0.3-0.3-0.6-0.5-1-0.7c-0.4-0.2-0.8-0.2-1.1-0.2
	c-0.8,0-1.6,0.3-2.1,0.9c-0.6,0.6-0.9,1.3-0.9,2.1s0.3,1.6,0.9,2.1C23.2,26.7,24,27,24.8,27z"/>
</svg>
