<svg xmlns="http://www.w3.org/2000/svg" width="33" height="33" viewBox="0 0 33 33" fill="none">
<rect width="33" height="33" rx="16.5" fill="#bb5cea"/>
<path d="M23.6154 9.71303C22.1823 9.04256 20.6501 8.55527 19.0481 8.27783C18.8514 8.63352 18.6215 9.11192 18.4631 9.49251C16.7601 9.23641 15.0729 9.23641 13.4013 9.49251C13.2429 9.11192 13.0078 8.63352 12.8093 8.27783C11.2056 8.55527 9.67158 9.04434 8.23854 9.71659C5.34809 14.0844 4.56454 18.3438 4.95631 22.5427C6.87341 23.9743 8.73131 24.844 10.5579 25.4131C11.0088 24.7924 11.4111 24.1326 11.7576 23.4372C11.0976 23.1865 10.4656 22.877 9.86834 22.5178C10.0268 22.4004 10.1818 22.2777 10.3315 22.1514C13.9742 23.8552 17.932 23.8552 21.5311 22.1514C21.6826 22.2777 21.8376 22.4004 21.9943 22.5178C21.3953 22.8788 20.7615 23.1883 20.1016 23.439C20.4481 24.1326 20.8486 24.7942 21.3013 25.4149C23.1296 24.8458 24.9892 23.9761 26.9063 22.5427C27.366 17.6751 26.121 13.4549 23.6154 9.71303ZM12.2538 19.9604C11.1603 19.9604 10.2636 18.9396 10.2636 17.6964C10.2636 16.4533 11.1412 15.4307 12.2538 15.4307C13.3665 15.4307 14.2632 16.4515 14.2441 17.6964C14.2458 18.9396 13.3665 19.9604 12.2538 19.9604ZM19.6088 19.9604C18.5153 19.9604 17.6186 18.9396 17.6186 17.6964C17.6186 16.4533 18.4962 15.4307 19.6088 15.4307C20.7215 15.4307 21.6182 16.4515 21.599 17.6964C21.599 18.9396 20.7215 19.9604 19.6088 19.9604Z" fill="white"/>
</svg>