<svg width="1120" height="47" viewBox="0 0 1120 47" fill="none" xmlns="http://www.w3.org/2000/svg">
<rect x="0.5" y="4" width="39" height="39" rx="19.5" stroke="#FF8400"/>
<path d="M22.2088 15.9545V30.5H19.5739V18.5185H19.4886L16.0866 20.6918V18.277L19.7017 15.9545H22.2088Z" fill="#FF8400"/>
<rect x="40" y="24" width="1" height="333.333" transform="rotate(-90 40 24)" fill="#8296B0"/>
<rect x="373.833" y="4" width="39" height="39" rx="19.5" stroke="#FF8400"/>
<path d="M388.126 30.5V28.5966L393.175 23.6463C393.658 23.1586 394.061 22.7254 394.383 22.3466C394.705 21.9678 394.946 21.6009 395.107 21.2457C395.268 20.8906 395.349 20.5118 395.349 20.1094C395.349 19.6501 395.244 19.2571 395.036 18.9304C394.828 18.599 394.541 18.3433 394.177 18.1634C393.812 17.9834 393.398 17.8935 392.934 17.8935C392.456 17.8935 392.037 17.9929 391.677 18.1918C391.317 18.3859 391.038 18.6629 390.839 19.0227C390.645 19.3826 390.547 19.8111 390.547 20.3082H388.04C388.04 19.3849 388.251 18.5824 388.672 17.9006C389.094 17.2187 389.674 16.6908 390.413 16.3168C391.156 15.9427 392.008 15.7557 392.969 15.7557C393.945 15.7557 394.802 15.938 395.54 16.3026C396.279 16.6671 396.852 17.1667 397.259 17.8011C397.671 18.4356 397.877 19.16 397.877 19.9744C397.877 20.5189 397.773 21.054 397.565 21.5795C397.356 22.1051 396.989 22.6875 396.464 23.3267C395.943 23.9659 395.211 24.7401 394.269 25.6491L391.762 28.1989V28.2983H398.097V30.5H388.126Z" fill="#FF8400"/>
<rect x="413.333" y="24" width="1" height="333.333" transform="rotate(-90 413.333 24)" fill="#8296B0"/>
<rect x="747.167" y="4" width="39" height="39" rx="19.5" stroke="#FF8400"/>
<path d="M766.18 30.6989C765.157 30.6989 764.248 30.5237 763.453 30.1733C762.662 29.8229 762.037 29.3352 761.578 28.7102C761.118 28.0852 760.874 27.3632 760.846 26.544H763.516C763.54 26.937 763.67 27.2803 763.907 27.5739C764.144 27.8627 764.459 28.0876 764.852 28.2486C765.245 28.4096 765.685 28.4901 766.173 28.4901C766.694 28.4901 767.155 28.4001 767.558 28.2202C767.96 28.0355 768.275 27.7798 768.502 27.4531C768.729 27.1264 768.841 26.75 768.836 26.3239C768.841 25.8835 768.727 25.4953 768.495 25.1591C768.263 24.8229 767.927 24.5601 767.487 24.3707C767.051 24.1813 766.525 24.0866 765.91 24.0866H764.624V22.0554H765.91C766.417 22.0554 766.859 21.9678 767.238 21.7926C767.622 21.6174 767.922 21.3712 768.14 21.054C768.358 20.732 768.464 20.3603 768.46 19.9389C768.464 19.527 768.372 19.1695 768.183 18.8665C767.998 18.5587 767.735 18.3196 767.394 18.1491C767.058 17.9787 766.663 17.8935 766.208 17.8935C765.763 17.8935 765.351 17.974 764.972 18.1349C764.594 18.2959 764.288 18.5256 764.056 18.8239C763.824 19.1174 763.701 19.4678 763.687 19.875H761.151C761.17 19.0606 761.405 18.3456 761.854 17.7301C762.309 17.1098 762.915 16.6269 763.673 16.2812C764.43 15.9309 765.28 15.7557 766.222 15.7557C767.193 15.7557 768.036 15.938 768.751 16.3026C769.47 16.6624 770.027 17.1477 770.42 17.7585C770.813 18.3693 771.009 19.044 771.009 19.7827C771.014 20.6018 770.773 21.2884 770.285 21.8423C769.802 22.3963 769.167 22.7585 768.381 22.929V23.0426C769.404 23.1847 770.188 23.5634 770.732 24.179C771.282 24.7898 771.554 25.5497 771.549 26.4588C771.549 27.2732 771.317 28.0024 770.853 28.6463C770.394 29.2855 769.759 29.7874 768.95 30.152C768.145 30.5166 767.221 30.6989 766.18 30.6989Z" fill="#FF8400"/>
<rect x="786.667" y="24" width="1" height="333.333" transform="rotate(-90 786.667 24)" fill="url(#paint0_linear_1065_24229)"/>
<defs>
<linearGradient id="paint0_linear_1065_24229" x1="787.167" y1="24" x2="787.167" y2="328.659" gradientUnits="userSpaceOnUse">
<stop stop-color="#8296B0"/>
<stop offset="1" stop-color="#8296B0" stop-opacity="0"/>
</linearGradient>
</defs>
</svg>
