<?xml version="1.0" encoding="utf-8"?>
<!-- Generator: Adobe Illustrator 25.4.1, SVG Export Plug-In . SVG Version: 6.00 Build 0)  -->
<svg version="1.1" id="Layer_1" xmlns="http://www.w3.org/2000/svg" xmlns:xlink="http://www.w3.org/1999/xlink" x="0px" y="0px"
	 viewBox="0 0 48 47" style="enable-background:new 0 0 48 47;" xml:space="preserve">
<style type="text/css">
	.st0{fill:#FFFFFF;stroke:#23EBF3;stroke-width:2;}
	.st1{fill:#23EBF3;}
</style>
<circle class="st0" cx="23.9" cy="23.5" r="22.5"/>
<path class="st1" d="M17.4,32c-0.5,0-1-0.2-1.4-0.6c-0.4-0.4-0.6-0.9-0.6-1.4V16c0-0.6,0.2-1,0.6-1.4c0.4-0.4,0.9-0.6,1.4-0.6h11
	l5,5v11c0,0.5-0.2,1-0.6,1.4C32.4,31.8,32,32,31.4,32H17.4z M19.4,28h10v-2h-10V28z M19.4,24h10v-2h-10V24z M27.4,20h4l-4-4V20z
	 M19.4,20h5v-2h-5V20z"/>
</svg>
