<?xml version="1.0" encoding="utf-8"?>
<!-- Generator: Adobe Illustrator 25.4.1, SVG Export Plug-In . SVG Version: 6.00 Build 0)  -->
<svg version="1.1" id="Layer_1" xmlns="http://www.w3.org/2000/svg" xmlns:xlink="http://www.w3.org/1999/xlink" x="0px" y="0px"
	 viewBox="0 0 47 47" style="enable-background:new 0 0 47 47;" xml:space="preserve">
<style type="text/css">
	.st0{fill:#FFFFFF;stroke:#23EBF3;stroke-width:2;}
	.st1{fill:#23EBF3;}
</style>
<circle class="st0" cx="23.5" cy="23.5" r="22.5"/>
<path class="st1" d="M22.9,32.4h-4.5c-0.3,0-0.6,0.1-0.8,0.3c-0.2,0.2-0.3,0.5-0.3,0.8c0,0.3,0.1,0.6,0.3,0.8
	c0.2,0.2,0.5,0.3,0.8,0.3h11.2c0.3,0,0.6-0.1,0.8-0.3c0.2-0.2,0.3-0.5,0.3-0.8c0-0.3-0.1-0.6-0.3-0.8c-0.2-0.2-0.5-0.3-0.8-0.3h-4.5
	v-1.4c1.9-0.4,3.6-1.4,4.9-2.8c0.9-1,1.7-2.1,2.2-3.4s0.8-2.6,0.8-4c0-2.4-0.8-4.7-2.2-6.5l0.8-0.8c0.2-0.2,0.3-0.5,0.3-0.8
	c0-0.3-0.1-0.6-0.3-0.8c-0.2-0.2-0.5-0.3-0.8-0.3c-0.3,0-0.6,0.1-0.8,0.3l-2.3,2.4l0.8,0.8c1.5,1.5,2.3,3.6,2.3,5.7
	s-0.8,4.2-2.3,5.7c-1.5,1.5-3.5,2.4-5.6,2.4s-4.1-0.8-5.6-2.4c-0.2-0.2-0.5-0.3-0.8-0.3c-0.3,0-0.6,0.1-0.8,0.3s-0.3,0.5-0.3,0.8
	c0,0.2,0,0.3,0.1,0.4c0.1,0.1,0.1,0.3,0.2,0.4c0.9,1,2,1.7,3.3,2.3c1.2,0.5,2.5,0.8,3.9,0.8V32.4z M22.9,13.8c1.9,0,3.5,0.8,4.8,2
	c0.6,0.6,1.1,1.4,1.5,2.3c0.3,0.8,0.5,1.7,0.5,2.7c0,0.9-0.2,1.8-0.5,2.7c-0.3,0.8-0.8,1.6-1.5,2.3c-0.6,0.6-1.4,1.2-2.2,1.5
	c-0.8,0.3-1.7,0.5-2.6,0.5c-0.9,0-1.8-0.2-2.6-0.5c-0.8-0.3-1.6-0.9-2.2-1.5c-1.2-1.3-2-3-2-4.9s0.8-3.7,2-4.9
	c0.6-0.6,1.4-1.2,2.2-1.5C21.1,14,22,13.8,22.9,13.8z"/>
</svg>
